<?xml version="1.0" encoding="UTF-8"?>
<svg width="311px" height="311px" viewBox="0 0 311 311" version="1.1" xmlns="http://www.w3.org/2000/svg" xmlns:xlink="http://www.w3.org/1999/xlink">
    <!-- Generator: Sketch 58 (84663) - https://sketch.com -->
    <title>Shape</title>
    <desc>Created with Sketch.</desc>
    <g id="Page-1" stroke="none" stroke-width="1" fill="none" fill-rule="evenodd">
        <g id="pause-svgrepo-com" fill="#1F3654" fill-rule="nonzero">
            <path d="M155.142,0 C69.597,0 0,69.597 0,155.142 C0,240.687 69.597,310.284 155.142,310.284 C240.687,310.284 310.284,240.687 310.284,155.142 C310.284,69.597 240.688,0 155.142,0 Z M130.392,212.864 C130.392,222.529 122.557,230.364 112.892,230.364 C103.227,230.364 95.392,222.529 95.392,212.864 L95.392,97.864 C95.392,88.199 103.227,80.364 112.892,80.364 C122.557,80.364 130.392,88.199 130.392,97.864 L130.392,212.864 Z M209.392,212.864 C209.392,222.529 201.557,230.364 191.892,230.364 C182.227,230.364 174.392,222.529 174.392,212.864 L174.392,97.864 C174.392,88.199 182.227,80.364 191.892,80.364 C201.557,80.364 209.392,88.199 209.392,97.864 L209.392,212.864 Z" id="Shape"></path>
        </g>
    </g>
</svg>